<?xml version="1.0" encoding="UTF-8"?>
<svg width="240px" height="75px" viewBox="0 0 240 75" version="1.1" xmlns="http://www.w3.org/2000/svg" xmlns:xlink="http://www.w3.org/1999/xlink">
    <!-- Generator: Sketch 56.2 (81672) - https://sketch.com -->
    <title>Group</title>
    <desc>Created with Sketch.</desc>
    <g id="Page-1" stroke="none" stroke-width="1" fill="none" fill-rule="evenodd">
        <g id="General-2" transform="translate(-136.000000, -219.000000)">
            <g id="Group" transform="translate(136.000000, 219.000000)">
                <path d="M67.3562745,73.7728227 L53.9048012,73.7728227 L53.9048012,40.2786505 C53.9048012,39.3591981 53.7317141,38.4890151 53.3855347,37.6680754 C53.0393554,36.8471357 52.5530631,36.1247196 51.9266433,35.5008054 C51.3002235,34.8768912 50.5749062,34.3925441 49.7506697,34.0477494 C48.9264331,33.7029547 48.0527555,33.53056 47.1296106,33.53056 C46.2064656,33.53056 45.3410302,33.7029547 44.5332784,34.0477494 C43.7255266,34.3925441 43.0166938,34.8768912 42.4067587,35.5008054 C41.7968237,36.1247196 41.3187736,36.8471357 40.9725943,37.6680754 C40.6264149,38.4890151 40.4533278,39.3591981 40.4533278,40.2786505 L40.4533278,73.7728227 L26.9524006,73.7728227 L26.9524006,40.2786505 C26.9524006,39.3591981 26.7793135,38.4890151 26.4331341,37.6680754 C26.0869548,36.8471357 25.6006625,36.1247196 24.9742427,35.5008054 C24.347823,34.8768912 23.6225057,34.3925441 22.7982691,34.0477494 C21.9740326,33.7029547 21.1003549,33.53056 20.17721,33.53056 C19.254065,33.53056 18.3886296,33.7029547 17.5808778,34.0477494 C16.773126,34.3925441 16.0642932,34.8768912 15.4543581,35.5008054 C14.8444231,36.1247196 14.366373,36.8471357 14.0201937,37.6680754 C13.6740143,38.4890151 13.5009273,39.3591981 13.5009273,40.2786505 L13.5009273,73.7728227 L0,73.7728227 C0,57.5804266 0,46.4157026 0,40.2786505 C0,34.1415985 2.30785081,29.0682165 6.92355244,25.0585047 C8.80281179,23.4823004 10.8716145,22.2591186 13.1300227,21.3889226 C15.3884308,20.5187265 17.7374698,20.083635 20.17721,20.083635 C22.6499196,20.083635 25.0648965,20.5433543 27.4222131,21.4628068 C29.7795296,22.3822592 31.8483323,23.9748584 33.6286833,26.2406519 C34.4529198,25.1241739 35.3925354,24.1718982 36.4475582,23.3837961 C37.502581,22.595694 38.6152837,21.9553706 39.7856996,21.4628068 C40.9561155,20.970243 42.167725,20.6172442 43.4205646,20.4037999 C44.6734042,20.1903555 45.9097404,20.083635 47.1296106,20.083635 C49.9320148,20.083635 52.56129,20.6090285 55.0175149,21.6598313 C57.4737399,22.7106341 59.6167228,24.147257 61.4465279,25.9697432 C63.2763331,27.7922293 64.7187254,29.9348498 65.7737482,32.3976689 C66.828771,34.8604879 67.3562745,37.4874556 67.3562745,40.2786505 L67.3562745,73.7728227 Z M128.382444,46.9282288 C128.382444,50.8687394 127.673611,54.5382848 126.255924,57.9369751 C124.838237,61.3356655 122.909553,64.2745855 120.469812,66.7538234 C118.030072,69.2330613 115.170014,71.1868684 111.889553,72.6153035 C108.609091,74.0437386 105.089654,74.7579454 101.331135,74.7579454 C97.6055862,74.7579454 94.1026333,74.0437386 90.8221719,72.6153035 C87.5417104,71.1868684 84.6734102,69.2330613 82.2171852,66.7538234 C79.7609603,64.2745855 77.8240335,61.3356655 76.4063466,57.9369751 C74.9886597,54.5382848 74.2798269,50.8687394 74.2798269,46.9282288 C74.2798269,42.9220431 74.9886597,39.2114513 76.4063466,35.7963422 C77.8240335,32.3812331 79.7609603,29.4341038 82.2171852,26.9548659 C84.6734102,24.475628 87.5417104,22.5300301 90.8221719,21.1180138 C94.1026333,19.7059975 97.6055862,19 101.331135,19 C105.089654,19 108.609091,19.6649512 111.889553,20.9948735 C115.170014,22.3247958 118.030072,24.2129288 120.469812,26.6593291 C122.909553,29.1057294 124.838237,32.0446494 126.255924,35.4761773 C127.673611,38.9077053 128.382444,42.7250176 128.382444,46.9282288 Z M114.782609,46.9282288 C114.782609,44.760948 114.428192,42.7989316 113.719349,41.0421206 C113.010505,39.2853097 112.046163,37.7748033 110.826293,36.5105562 C109.606423,35.246309 108.180515,34.2776147 106.548527,33.6044442 C104.916538,32.9312736 103.177425,32.5946934 101.331135,32.5946934 C99.4848455,32.5946934 97.7457325,32.9312736 96.1137441,33.6044442 C94.4817557,34.2776147 93.0640901,35.246309 91.8607047,36.5105562 C90.6573193,37.7748033 89.7094615,39.2853097 89.0171028,41.0421206 C88.3247441,42.7989316 87.97857,44.760948 87.97857,46.9282288 C87.97857,48.9641593 88.3247441,50.8522923 89.0171028,52.5926844 C89.7094615,54.3330766 90.6573193,55.843583 91.8607047,57.1242489 C93.0640901,58.4049148 94.4817557,59.4146555 96.1137441,60.1535012 C97.7457325,60.8923469 99.4848455,61.2617643 101.331135,61.2617643 C103.177425,61.2617643 104.916538,60.9169748 106.548527,60.2273854 C108.180515,59.5377961 109.606423,58.5691018 110.826293,57.3212734 C112.046163,56.0734451 113.010505,54.5629387 113.719349,52.789709 C114.428192,51.0164792 114.782609,49.062672 114.782609,46.9282288 Z M149.449825,73.7728227 L135.84999,73.7728227 L135.84999,38.2620769 L149.449825,21.1180138 L149.449825,46.5341797 L169.577581,21.1180138 L185.10612,21.1180138 L167.549969,43.0862503 L185.10612,73.7728227 L169.577581,73.7728227 L158.846075,54.612186 L149.449825,67.0247321 L149.449825,73.7728227 Z M240,46.9282288 C240,50.8687394 239.291167,54.5382848 237.87348,57.9369751 C236.455793,61.3356655 234.527109,64.2745855 232.087369,66.7538234 C229.647628,69.2330613 226.78757,71.1868684 223.507109,72.6153035 C220.226648,74.0437386 216.70721,74.7579454 212.948692,74.7579454 C209.223142,74.7579454 205.720189,74.0437386 202.439728,72.6153035 C199.159267,71.1868684 196.290966,69.2330613 193.834741,66.7538234 C191.378516,64.2745855 189.44159,61.3356655 188.023903,57.9369751 C186.606216,54.5382848 185.897383,50.8687394 185.897383,46.9282288 C185.897383,42.9220431 186.606216,39.2114513 188.023903,35.7963422 C189.44159,32.3812331 191.378516,29.4341038 193.834741,26.9548659 C196.290966,24.475628 199.159267,22.5300301 202.439728,21.1180138 C205.720189,19.7059975 209.223142,19 212.948692,19 C216.70721,19 220.226648,19.6649512 223.507109,20.9948735 C226.78757,22.3247958 229.647628,24.2129288 232.087369,26.6593291 C234.527109,29.1057294 236.455793,32.0446494 237.87348,35.4761773 C239.291167,38.9077053 240,42.7250176 240,46.9282288 Z M226.400165,46.9282288 C226.400165,44.760948 226.045748,42.7989316 225.336905,41.0421206 C224.628062,39.2853097 223.663719,37.7748033 222.443849,36.5105562 C221.223979,35.246309 219.798071,34.2776147 218.166083,33.6044442 C216.534094,32.9312736 214.794981,32.5946934 212.948692,32.5946934 C211.102402,32.5946934 209.363289,32.9312736 207.7313,33.6044442 C206.099312,34.2776147 204.681646,35.246309 203.478261,36.5105562 C202.274875,37.7748033 201.327018,39.2853097 200.634659,41.0421206 C199.9423,42.7989316 199.596126,44.760948 199.596126,46.9282288 C199.596126,48.9641593 199.9423,50.8522923 200.634659,52.5926844 C201.327018,54.3330766 202.274875,55.843583 203.478261,57.1242489 C204.681646,58.4049148 206.099312,59.4146555 207.7313,60.1535012 C209.363289,60.8923469 211.102402,61.2617643 212.948692,61.2617643 C214.794981,61.2617643 216.534094,60.9169748 218.166083,60.2273854 C219.798071,59.5377961 221.223979,58.5691018 222.443849,57.3212734 C223.663719,56.0734451 224.628062,54.5629387 225.336905,52.789709 C226.045748,51.0164792 226.400165,49.062672 226.400165,46.9282288 Z" id="moko-copy" fill="#FFFFFF"></path>
                <polygon id="Path-2" fill="#684CDC" points="149.45 15.5120052 135.85 32.6099003 135.85 1.44389339e-13 149.45 1.44389339e-13"></polygon>
            </g>
        </g>
    </g>
</svg>